# xmcd
# 
# Track frame offsets:
#     150
#     12846
#     24028
#     36988
#     49352
#     61813
#     76203
#     90548
#     104336
#     116373
#     129237
#     140626
#     152369
#     164576
#     177935
#     192891
#     205794
#     218299
#     231337
#     243681
#     255949
#     269386
#     282352
#     294227
#     306135
#     319366
#     332327
# 
# Disc length: 4571
# 
# Revision: 4
# Processed by: cddbd v1.5.2PL0 Copyright (c) Steve Scherf et al.
# Submitted via: fre:ac v1.0.27
# 
DISCID=6d11d91b
DTITLE=Various Artist - Motown: The Complete No. 1's
DYEAR=2008
DGENRE=R&B
TTITLE0=The Miracles (Featuring Bill "Smokey" Robinson) - Shop Around
TTITLE1=The Marvelettes - Please Mr. Postman
TTITLE2=The Contours - Do You Love Me
TTITLE3=Mary Wells - You Beat Me To The Punch
TTITLE4=Mary Wells - Two Lovers
TTITLE5=The Miracles - You've Really Got A Hold On Me
TTITLE6=Little Stevie Wonder - Fingertips-Part 2
TTITLE7=Martha and The Vandellas - Heat Wave
TTITLE8=The Temptations - The Way You Do The Things You Do
TTITLE9=Mary Wells - My Guy
TTITLE10=The Supremes - Where Did Our Love Go
TTITLE11=The Supremes - Baby Love
TTITLE12=The Supremes - Come See About Me
TTITLE13=The Temptations - My Girl
TTITLE14=Jr. Walker and The All-Stars - Shotgun
TTITLE15=The Supremes - Stop! In The Name Of Love
TTITLE16=Marvin Gaye - I'll Be Doggone
TTITLE17=The Supremes - Back In My Arms Again
TTITLE18=Four Tops - I Can't Help Myself
TTITLE19=The Supremes - I Hear A Symphony
TTITLE20=Marvin Gaye - Ain't That Peculiar
TTITLE21=Stevie Wonder - Uptight (Everything's Alright)
TTITLE22=The Temptations - Get Ready
TTITLE23=Martha and The Vandellas - Dancing In The Street
TTITLE24=Marvin Gaye - How Sweet It Is (To Be Loved By You)
TTITLE25=The Isley Brothers - This Old Heart Of Mine (Is Weak For You)
TTITLE26=Marvin Gaye - Wherever I Lay My Hat (That's My Home)
EXTD=YEAR: 2008
EXTT0=
EXTT1=
EXTT2=
EXTT3=
EXTT4=
EXTT5=
EXTT6=
EXTT7=
EXTT8=
EXTT9=
EXTT10=
EXTT11=
EXTT12=
EXTT13=
EXTT14=
EXTT15=
EXTT16=
EXTT17=
EXTT18=
EXTT19=
EXTT20=
EXTT21=
EXTT22=
EXTT23=
EXTT24=
EXTT25=
EXTT26=
PLAYORDER=
